ModelForces
version=1
nRows=4
nColumns=157
inDegrees=no

This file contains the forces exerted on a model during a simulation.

A force is a generalized force, meaning that it can be either a force (N) or a torque (Nm).

Units are S.I. units (second, meters, Newtons, ...)
Angles are in degrees.

endheader
time	glut_med1_r	glut_med2_r	glut_med3_r	glut_min1_r	glut_min2_r	glut_min3_r	semimem_r	semiten_r	bifemlh_r	bifemsh_r	sar_r	add_long_r	add_brev_r	add_mag1_r	add_mag2_r	add_mag3_r	tfl_r	pect_r	grac_r	glut_max1_r	glut_max2_r	glut_max3_r	iliacus_r	psoas_r	quad_fem_r	gem_r	peri_r	rect_fem_r	vas_med_r	vas_int_r	vas_lat_r	med_gas_r	lat_gas_r	soleus_r	tib_post_r	flex_dig_r	flex_hal_r	tib_ant_r	per_brev_r	per_long_r	per_tert_r	ext_dig_r	ext_hal_r	glut_med1_l	glut_med2_l	glut_med3_l	glut_min1_l	glut_min2_l	glut_min3_l	semimem_l	semiten_l	bifemlh_l	bifemsh_l	sar_l	add_long_l	add_brev_l	add_mag1_l	add_mag2_l	add_mag3_l	tfl_l	pect_l	grac_l	glut_max1_l	glut_max2_l	glut_max3_l	iliacus_l	psoas_l	quad_fem_l	gem_l	peri_l	rect_fem_l	vas_med_l	vas_int_l	vas_lat_l	med_gas_l	lat_gas_l	soleus_l	tib_post_l	flex_dig_l	flex_hal_l	tib_ant_l	per_brev_l	per_long_l	per_tert_l	ext_dig_l	ext_hal_l	ercspn_r	ercspn_l	intobl_r	intobl_l	extobl_r	extobl_l	femur_lat_meniscii_r.femur_lat_r.force.X	femur_lat_meniscii_r.femur_lat_r.force.Y	femur_lat_meniscii_r.femur_lat_r.force.Z	femur_lat_meniscii_r.femur_lat_r.torque.X	femur_lat_meniscii_r.femur_lat_r.torque.Y	femur_lat_meniscii_r.femur_lat_r.torque.Z	femur_lat_meniscii_r.meniscus_lat_r.force.X	femur_lat_meniscii_r.meniscus_lat_r.force.Y	femur_lat_meniscii_r.meniscus_lat_r.force.Z	femur_lat_meniscii_r.meniscus_lat_r.torque.X	femur_lat_meniscii_r.meniscus_lat_r.torque.Y	femur_lat_meniscii_r.meniscus_lat_r.torque.Z	femur_med_meniscii_r.femur_med_r.force.X	femur_med_meniscii_r.femur_med_r.force.Y	femur_med_meniscii_r.femur_med_r.force.Z	femur_med_meniscii_r.femur_med_r.torque.X	femur_med_meniscii_r.femur_med_r.torque.Y	femur_med_meniscii_r.femur_med_r.torque.Z	femur_med_meniscii_r.meniscus_med_r.force.X	femur_med_meniscii_r.meniscus_med_r.force.Y	femur_med_meniscii_r.meniscus_med_r.force.Z	femur_med_meniscii_r.meniscus_med_r.torque.X	femur_med_meniscii_r.meniscus_med_r.torque.Y	femur_med_meniscii_r.meniscus_med_r.torque.Z	femur_med_tibia_r.tibia_upper_r.force.X	femur_med_tibia_r.tibia_upper_r.force.Y	femur_med_tibia_r.tibia_upper_r.force.Z	femur_med_tibia_r.tibia_upper_r.torque.X	femur_med_tibia_r.tibia_upper_r.torque.Y	femur_med_tibia_r.tibia_upper_r.torque.Z	femur_med_tibia_r.femur_med_r.force.X	femur_med_tibia_r.femur_med_r.force.Y	femur_med_tibia_r.femur_med_r.force.Z	femur_med_tibia_r.femur_med_r.torque.X	femur_med_tibia_r.femur_med_r.torque.Y	femur_med_tibia_r.femur_med_r.torque.Z	femur_lat_tibia_r.tibia_upper_r.force.X	femur_lat_tibia_r.tibia_upper_r.force.Y	femur_lat_tibia_r.tibia_upper_r.force.Z	femur_lat_tibia_r.tibia_upper_r.torque.X	femur_lat_tibia_r.tibia_upper_r.torque.Y	femur_lat_tibia_r.tibia_upper_r.torque.Z	femur_lat_tibia_r.femur_lat_r.force.X	femur_lat_tibia_r.femur_lat_r.force.Y	femur_lat_tibia_r.femur_lat_r.force.Z	femur_lat_tibia_r.femur_lat_r.torque.X	femur_lat_tibia_r.femur_lat_r.torque.Y	femur_lat_tibia_r.femur_lat_r.torque.Z	aACL_R	pACL_R	aPCL_R	pPCL_R	aMCL_R	mMCL_R	pMCL_R	aLCL_R	mLCL_R	pLCL_R	ground_prescribedForce_fx	ground_prescribedForce_fy	ground_prescribedForce_fz	ground_prescribedForce_px	ground_prescribedForce_py	ground_prescribedForce_pz
      0.80747390	      7.54648356	      5.66474212	      6.06362034	      2.65848060	      3.17845417	      3.19212244	      4.52592071	      3.91187850	      6.10490333	      6.70714620	      0.72379833	      5.61226766	      4.14035884	      2.91840671	      2.45327762	      3.98664642	      3.89279598	      2.23832821	      1.50763196	      3.65542219	      5.55500996	      4.14666117	     22.64577140	     12.96479664	      3.62604004	      2.85402062	      4.08894544	     11.54626378	      9.94988417	     10.49171599	     14.11090407	      0.00000000	      1.59203917	     11.69577254	     14.52422143	      3.06197485	      2.54410730	     13.93005640	      4.02447019	      8.54916518	     10.38943202	      8.38019595	      2.09637181	      7.54648356	      5.66474212	      6.06362034	      2.65848060	      3.17845417	      3.19212244	      8.74311097	      4.08244843	      7.68112246	      7.21475812	      1.51948422	      5.61226766	      4.14035884	      2.91840671	      2.45327762	      3.98664642	      4.09652005	      2.23832821	      1.55843202	      3.65542219	      5.55500996	      4.14666117	     22.64577140	     12.96479664	      3.62604004	      2.85402062	      4.08894544	     10.66481206	      6.59148007	      7.56092817	      8.13004850	     13.94831370	      6.47651893	     31.07870555	     42.35623277	      2.52905653	      2.81603596	      8.45002455	      4.33298374	     12.44417098	      2.00556543	      5.38823409	      1.70900904	     25.00229967	     25.00229967	      8.99846911	      8.99846911	     26.80323399	     26.80323399	     48.67176141	     60.00663994	     16.15143524	     -8.11446238	      1.17639926	     20.11333519	    -48.67176141	    -60.00663994	    -16.15143524	      1.94052495	     -1.40388073	     -0.66324896	     60.25881412	     47.67496090	     10.95855709	     -3.44331102	     -1.34772270	     24.77005741	    -60.25881412	    -47.67496090	    -10.95855709	     -0.74079885	      1.17446855	     -1.00877377	      0.00000000	      0.00000000	      0.00000000	      0.00000000	      0.00000000	      0.00000000	      0.00000000	      0.00000000	      0.00000000	      0.00000000	      0.00000000	      0.00000000	      0.00000000	      0.00000000	      0.00000000	      0.00000000	      0.00000000	      0.00000000	      0.00000000	      0.00000000	      0.00000000	      0.00000000	      0.00000000	      0.00000000	     54.59865798	     25.19583317	     21.32336418	      8.69536670	     -0.11545607	     -0.08041959	      0.00000000	      0.35807857	      0.00000000	      0.00000000	     95.26279000	    -55.00000000	      0.00000000	      0.03000000	     -0.03000000	      0.00000000
      0.80804719	      7.54647648	      5.66473724	      6.06361506	      2.65847841	      3.17845180	      3.19211945	      4.52874084	      3.91323172	      6.10764049	      6.70719830	      1.18047361	      5.61226277	      4.14035545	      2.91840422	      2.45327548	      3.98664255	      3.89253833	      2.23832636	      1.50773989	      3.65541905	      5.55500517	      4.14665752	     22.64576255	     12.96478669	      3.62603699	      2.85401919	      4.08893969	     11.55198900	      9.95820284	     10.49988182	     14.12174460	      0.30589737	      1.59408156	     11.70771193	     14.53874415	      3.06307018	      2.54555477	     13.92232767	      4.02583609	      8.55053117	     10.38887883	      8.38503035	      2.09550361	      7.54647648	      5.66473724	      6.06361506	      2.65847841	      3.17845180	      3.19211945	      8.74310064	      4.08244463	      7.68111388	      7.21475203	      1.51948297	      5.61226277	      4.14035545	      2.91840422	      2.45327548	      3.98664255	      4.09651766	      2.23832636	      1.55843072	      3.65541905	      5.55500517	      4.14665752	     22.64576255	     12.96478669	      3.62603699	      2.85401919	      4.08893969	     10.66480038	      6.59147426	      7.56092138	      8.13004124	     13.94828638	      6.47650622	     31.07866195	     42.35621577	      2.52853328	      2.81581422	      8.45001576	      4.33297846	     12.44415790	      2.00556388	      5.38848049	      1.70907319	     25.00227900	     25.00227900	      8.99846101	      8.99846101	     26.80322671	     26.80322671	     48.68173510	     60.01641342	     16.15376433	     -8.11565218	      1.17663282	     20.11748109	    -48.68173510	    -60.01641342	    -16.15376433	      1.94082841	     -1.40415546	     -0.66342559	     60.27158243	     47.69849074	     10.95908813	     -3.44303494	     -1.34805726	     24.77522125	    -60.27158243	    -47.69849074	    -10.95908813	     -0.74126027	      1.17478157	     -1.00872904	      0.00000000	      0.00000000	      0.00000000	      0.00000000	      0.00000000	      0.00000000	      0.00000000	      0.00000000	      0.00000000	      0.00000000	      0.00000000	      0.00000000	      0.00000000	      0.00000000	      0.00000000	      0.00000000	      0.00000000	      0.00000000	      0.00000000	      0.00000000	      0.00000000	      0.00000000	      0.00000000	      0.00000000	     54.55891696	     25.15388174	     21.28724309	      8.61811081	     -0.18593807	     -0.15052058	      0.00000000	      0.25732048	      0.00000000	      0.00000000	     95.26279000	    -55.00000000	      0.00000000	      0.03000000	     -0.03000000	      0.00000000
      0.80891170	      7.54646590	      5.66472995	      6.06360716	      2.65847513	      3.17844825	      3.19211499	      4.53085686	      3.91405496	      6.11005208	      6.70215694	      1.40430573	      5.61225546	      4.14035040	      2.91840049	      2.45327227	      3.98663677	      3.89170421	      2.23832358	      1.50719498	      3.65541435	      5.55499800	      4.14665208	     22.64574933	     12.96477184	      3.62603242	      2.85401706	      4.08893109	     11.55775267	      9.96361683	     10.50509373	     14.12996178	      0.91636280	      1.59578088	     11.72122415	     14.56045718	      3.06468353	      2.54784787	     13.91251870	      4.02739215	      8.55210010	     10.38808091	      8.39238334	      2.09426483	      7.54646590	      5.66472995	      6.06360716	      2.65847513	      3.17844825	      3.19211499	      8.74308520	      4.08243896	      7.68110105	      7.21474294	      1.51948110	      5.61225546	      4.14035040	      2.91840049	      2.45327227	      3.98663677	      4.09651409	      2.23832358	      1.55842877	      3.65541435	      5.55499800	      4.14665208	     22.64574933	     12.96477184	      3.62603242	      2.85401706	      4.08893109	     10.66478292	      6.59146558	      7.56091124	      8.13003038	     13.94824555	      6.47648723	     31.07859682	     42.35619039	      2.52774312	      2.81547973	      8.45000263	      4.33297057	     12.44413836	      2.00556158	      5.38885242	      1.70916997	     25.00224812	     25.00224812	      8.99844891	      8.99844891	     26.80321584	     26.80321584	     48.70732969	     60.04441366	     16.16376285	     -8.12046624	      1.17725442	     20.12809548	    -48.70732969	    -60.04441366	    -16.16376285	      1.94181738	     -1.40492156	     -0.66383894	     60.32614384	     47.74669184	     10.97110436	     -3.44691557	     -1.34925458	     24.79763778	    -60.32614384	    -47.74669184	    -10.97110436	     -0.74196792	      1.17579109	     -1.00955894	      0.00000000	      0.00000000	      0.00000000	      0.00000000	      0.00000000	      0.00000000	      0.00000000	      0.00000000	      0.00000000	      0.00000000	      0.00000000	      0.00000000	      0.00000000	      0.00000000	      0.00000000	      0.00000000	      0.00000000	      0.00000000	      0.00000000	      0.00000000	      0.00000000	      0.00000000	      0.00000000	      0.00000000	     54.47151819	     25.06102161	     21.21764814	      8.47698037	     -0.31673759	     -0.28101103	      0.00000000	      0.08114937	      0.00000000	      0.00000000	     95.26279000	    -55.00000000	      0.00000000	      0.03000000	     -0.03000000	      0.00000000
      0.81054994	      7.54644617	      5.66471636	      6.06359242	      2.65846903	      3.17844165	      3.19210666	      4.52999392	      3.91297528	      6.11082520	      6.68506946	      1.49546196	      5.61224184	      4.14034097	      2.91839354	      2.45326629	      3.98662600	      3.88913385	      2.23831840	      1.50549325	      3.65540558	      5.55498464	      4.14664192	     22.64572469	     12.96474413	      3.62602391	      2.85401307	      4.08891506	     11.56174532	      9.95758141	     10.49875499	     14.12600151	      1.02470645	      1.59572496	     11.73249137	     14.60151902	      3.06771190	      2.55260399	     13.90103205	      4.02814941	      8.55276149	     10.38624872	      8.40655875	      2.09220968	      7.54644617	      5.66471636	      6.06359242	      2.65846903	      3.17844165	      3.19210666	      8.74305642	      4.08242839	      7.68107712	      7.21472599	      1.51947763	      5.61224184	      4.14034097	      2.91839354	      2.45326629	      3.98662600	      4.09650743	      2.23831840	      1.55842515	      3.65540558	      5.55498464	      4.14664192	     22.64572469	     12.96474413	      3.62602391	      2.85401307	      4.08891506	     10.66475036	      6.59144941	      7.56089232	      8.13001015	     13.94816942	      6.47645180	     31.07847536	     42.35614304	      2.52624211	      2.81484544	      8.44997815	      4.33295586	     12.44410191	      2.00555728	      5.38955849	      1.70935351	     25.00219053	     25.00219053	      8.99842634	      8.99842634	     26.80319557	     26.80319557	     48.74708912	     60.09375087	     16.18564594	     -8.13074751	      1.17825310	     20.14455804	    -48.74708912	    -60.09375087	    -16.18564594	      1.94370448	     -1.40620736	     -0.66439857	     60.43957683	     47.83314906	     11.01964425	     -3.46518297	     -1.35167074	     24.84438122	    -60.43957683	    -47.83314906	    -11.01964425	     -0.74232676	      1.17755505	     -1.01161463	      0.00000000	      0.00000000	      0.00000000	      0.00000000	      0.00000000	      0.00000000	      0.00000000	      0.00000000	      0.00000000	      0.00000000	      0.00000000	      0.00000000	      0.00000000	      0.00000000	      0.00000000	      0.00000000	      0.00000000	      0.00000000	      0.00000000	      0.00000000	      0.00000000	      0.00000000	      0.00000000	      0.00000000	     54.34070283	     24.92277667	     21.14515431	      8.38791593	     -0.41828398	     -0.38141192	      0.00000000	     -0.05512571	      0.00000000	      0.00000000	     95.26279000	    -55.00000000	      0.00000000	      0.03000000	     -0.03000000	      0.00000000
